<?xml version="1.0" standalone="no"?>
<!DOCTYPE svg PUBLIC "-//W3C//DTD SVG 20010904//EN"
 "http://www.w3.org/TR/2001/REC-SVG-20010904/DTD/svg10.dtd">
<svg version="1.0" xmlns="http://www.w3.org/2000/svg"
 width="750.000000pt" height="750.000000pt" viewBox="0 0 750.000000 750.000000"
 preserveAspectRatio="xMidYMid meet">
<metadata>
Created by potrace 1.11, written by Peter Selinger 2001-2013
</metadata>
<g transform="translate(0.000000,750.000000) scale(0.100000,-0.100000)"
fill="#000000" stroke="none">
<path d="M3305 5879 c-175 -16 -467 -84 -478 -113 -7 -19 20 -205 43 -296 54
-214 107 -343 196 -477 98 -147 201 -241 341 -312 139 -70 490 -148 703 -156
246 -10 656 -46 695 -62 12 -4 12 -7 0 -20 -11 -10 -12 -19 -5 -33 7 -13 7
-21 0 -25 -21 -13 -9 -25 30 -31 23 -4 39 -8 37 -10 -3 -4 -126 2 -492 21
-143 8 -384 32 -498 50 -551 87 -794 241 -1008 639 -67 125 -145 399 -174 609
-6 44 -8 47 -28 41 -89 -27 -350 -185 -466 -281 -16 -12 18 -10 95 7 107 24
206 27 198 6 -3 -7 11 -34 30 -59 l34 -45 -86 -12 c-126 -17 -226 -38 -318
-66 -91 -27 -98 -28 -90 -15 3 4 -3 19 -14 31 -19 22 -23 22 -63 11 -72 -21
-177 -91 -247 -165 l-28 -29 27 -23 c21 -18 30 -20 46 -11 11 5 -4 -15 -33
-45 -96 -100 -190 -245 -225 -350 -5 -13 -16 -15 -64 -11 -70 6 -79 -1 -89
-74 -8 -62 -22 -57 191 -73 399 -30 1016 -134 1215 -205 369 -132 642 -434
820 -910 79 -209 107 -321 275 -1110 47 -220 85 -409 85 -420 -1 -20 -1 -20
-16 0 -13 17 -16 18 -24 5 -8 -12 -10 -12 -10 -1 0 11 -5 10 -25 -3 -23 -15
-25 -15 -40 11 l-16 28 6 -32 c15 -95 14 -93 51 -93 19 0 49 -7 65 -16 48 -24
195 -37 301 -25 51 6 94 15 96 21 2 5 17 10 33 10 34 0 34 -5 9 90 -12 41 -25
98 -30 125 -5 28 -21 104 -35 170 -40 182 -64 324 -65 381 l0 51 58 -9 c94
-13 378 -10 482 6 389 60 722 267 955 591 31 44 61 80 65 80 5 0 12 4 17 9 5
5 3 6 -4 2 -17 -9 -16 -1 2 35 9 17 21 27 27 23 7 -4 8 -3 4 4 -4 6 7 44 23
84 114 277 156 628 106 893 -14 73 -71 241 -85 250 -4 3 5 -33 21 -79 47 -139
62 -256 56 -451 -6 -180 -22 -290 -63 -433 -121 -417 -440 -758 -844 -900
-116 -40 -291 -74 -369 -70 -59 3 -64 5 -68 27 -2 14 -8 30 -14 37 -8 10 -2
14 28 19 263 40 365 69 516 147 221 114 401 282 522 488 123 210 194 520 181
790 -7 152 -31 254 -90 375 -56 114 -120 198 -230 303 -48 45 -83 82 -79 82 5
0 14 -5 19 -10 11 -11 84 13 84 28 0 4 -9 22 -20 40 -12 19 -16 31 -10 27 5
-3 10 -4 10 -2 0 3 -32 27 -71 53 -51 35 -88 72 -134 134 -78 104 -333 359
-290 290 17 -27 75 -248 89 -339 25 -153 21 -481 -5 -481 -5 0 -9 7 -9 15 0
14 -12 19 -32 16 -5 0 -8 9 -9 21 0 20 -2 20 -11 -6 -7 -19 -13 -24 -18 -16
-4 7 -14 -21 -23 -66 l-16 -79 7 90 c25 328 -11 593 -113 837 -60 142 -89 181
-164 221 -94 50 -204 94 -318 126 -142 41 -368 84 -400 77 -54 -14 -214 -198
-191 -221 3 -3 25 -10 49 -15 l44 -9 -52 4 -52 4 -30 -79 c-50 -132 -63 -287
-37 -435 34 -191 110 -313 242 -392 27 -17 60 -34 72 -37 12 -4 22 -12 22 -17
0 -6 -9 -5 -21 2 -17 9 -20 8 -13 -3 5 -7 9 -27 9 -45 0 -24 -3 -29 -13 -21
-9 8 -11 7 -7 -4 3 -8 22 -20 41 -27 56 -20 32 -25 -33 -6 -179 52 -286 144
-381 328 -32 63 -42 75 -40 52 1 -16 9 -35 18 -42 8 -7 12 -13 8 -13 -4 0 -72
42 -151 94 -79 52 -197 126 -263 165 -65 39 -110 71 -101 71 10 0 34 15 53 34
l36 35 -39 20 c-21 11 -33 20 -28 21 23 1 248 -121 349 -189 l109 -73 -7 44
c-17 114 -4 338 29 493 6 30 6 30 -7 5 -7 -14 -20 -26 -28 -27 -8 0 -29 -4
-46 -8 -22 -5 -35 -2 -47 9 -10 10 -18 12 -22 6 -10 -16 -25 -12 -19 5 4 8 2
15 -4 15 -6 0 -12 -6 -15 -12 -3 -10 -8 -9 -22 2 -17 14 -16 15 16 22 19 4
-24 5 -96 3 -105 -2 -120 -1 -80 7 28 5 128 12 224 16 l174 7 39 75 c22 41 55
94 74 117 19 23 34 44 34 47 0 9 -420 5 -535 -5z m329 -351 c-3 -4 -49 -7
-102 -6 l-97 2 85 6 c112 7 119 7 114 -2z m1074 -315 c-23 -6 -30 -91 -8 -104
8 -4 11 -9 5 -9 -57 -2 -304 -46 -387 -70 -102 -28 -299 -106 -346 -137 -34
-21 -38 -9 -5 13 20 14 28 28 29 52 1 17 -3 32 -8 32 -6 0 -5 6 2 15 10 12 9
16 -5 21 -22 9 34 41 155 89 160 64 351 103 505 103 44 0 73 -2 63 -5z m-1973
-46 c44 -7 60 -13 43 -15 -25 -3 -49 -32 -27 -32 6 0 7 -4 4 -10 -13 -22 -13
-50 0 -50 8 0 17 -5 21 -11 4 -8 -3 -9 -24 -5 -16 4 -81 7 -143 7 -178 1 -337
-35 -481 -107 -72 -36 -96 -44 -60 -18 12 8 20 20 17 25 -4 5 2 6 12 2 15 -6
16 -4 6 8 -7 9 -9 20 -3 29 6 9 5 18 -3 23 -9 7 -9 10 1 14 10 4 9 8 -5 18
-16 12 -10 18 67 53 180 83 361 105 575 69z m597 -763 c-3 -18 -1 -25 6 -20 6
3 16 0 24 -7 16 -16 48 -18 65 -5 7 6 -1 -28 -17 -75 -24 -69 -50 -182 -50
-219 0 -5 -27 18 -59 50 l-60 57 10 54 c9 46 72 191 83 191 2 0 1 -12 -2 -26z"/>
<path d="M4027 4589 c7 -7 15 -10 18 -7 3 3 -2 9 -12 12 -14 6 -15 5 -6 -5z"/>
<path d="M1378 4371 c-13 -5 -13 -15 -2 -71 58 -285 247 -523 519 -656 159
-77 416 -128 618 -123 l79 2 42 -79 c132 -254 328 -395 591 -425 131 -14 354
14 341 44 -2 7 -19 55 -36 107 -141 421 -285 655 -515 839 -80 64 -200 129
-293 160 -177 57 -707 149 -1047 180 -126 12 -242 23 -256 24 -15 2 -33 1 -41
-2z m1122 -383 c96 -77 278 -180 425 -240 62 -25 66 -28 32 -25 -26 2 -36 -1
-33 -9 3 -7 2 -15 -2 -19 -4 -4 -7 -10 -7 -14 0 -4 -8 -15 -18 -25 -13 -14
-26 -17 -55 -12 -97 17 -114 18 -125 6 -9 -10 -9 -11 1 -6 16 10 15 -4 -2 -23
-8 -9 -16 -23 -18 -31 -2 -8 -7 -18 -13 -22 -5 -4 13 -8 40 -9 l50 -2 -45 -8
c-63 -11 -129 -11 -111 0 25 16 -24 23 -107 16 -83 -7 -246 7 -352 31 -106 24
-240 82 -211 92 9 3 7 10 -5 23 -9 10 -13 19 -8 19 5 0 2 5 -6 10 -13 8 -13
10 -1 10 8 0 -6 13 -32 30 -59 37 -61 47 -4 15 135 -75 326 -123 527 -132 139
-6 323 4 315 18 -4 5 -37 24 -76 44 -149 75 -256 157 -394 305 -36 38 -37 40
-10 24 16 -11 26 -14 23 -8 -10 15 40 66 55 57 7 -4 4 5 -5 20 -32 48 -19 41
55 -29 39 -38 92 -86 117 -106z m665 -666 c-5 -6 -104 40 -115 53 -6 7 18 -1
53 -18 36 -18 63 -33 62 -35z m62 -8 c-3 -3 -12 -4 -19 -1 -8 3 -5 6 6 6 11 1
17 -2 13 -5z"/>
<path d="M5846 3283 c-6 -14 -5 -15 5 -6 7 7 10 15 7 18 -3 3 -9 -2 -12 -12z"/>
<path d="M5788 3186 c-76 -114 -220 -263 -347 -360 -94 -71 -258 -155 -396
-203 -66 -23 -112 -42 -101 -42 10 -1 57 12 105 28 288 97 510 255 696 496 38
49 79 115 74 119 -2 2 -16 -15 -31 -38z"/>
<path d="M3413 3003 c9 -2 25 -2 35 0 9 3 1 5 -18 5 -19 0 -27 -2 -17 -5z"/>
<path d="M4898 2573 c7 -3 16 -2 19 1 4 3 -2 6 -13 5 -11 0 -14 -3 -6 -6z"/>
<path d="M4758 2553 c12 -2 30 -2 40 0 9 3 -1 5 -23 4 -22 0 -30 -2 -17 -4z"/>
<path d="M4698 2543 c6 -2 18 -2 25 0 6 3 1 5 -13 5 -14 0 -19 -2 -12 -5z"/>
<path d="M5105 1754 c-88 -68 -264 -107 -628 -139 -223 -19 -424 -19 -642 0
-288 25 -444 52 -554 94 -66 25 -75 21 -25 -8 80 -47 309 -91 557 -107 67 -4
107 -11 107 -18 0 -6 5 -4 11 4 8 11 12 12 16 3 7 -18 414 -18 431 -1 10 10
15 10 22 -2 7 -10 10 -11 10 -2 0 8 17 12 49 12 69 0 312 27 401 45 136 28
227 61 260 97 33 36 23 51 -15 22z"/>
<path d="M5070 1689 c-30 -16 -95 -39 -145 -50 -103 -24 -152 -42 -90 -33 124
18 305 83 305 109 0 9 -14 4 -70 -26z"/>
<path d="M4768 1603 c7 -3 16 -2 19 1 4 3 -2 6 -13 5 -11 0 -14 -3 -6 -6z"/>
<path d="M4613 1583 c9 -2 25 -2 35 0 9 3 1 5 -18 5 -19 0 -27 -2 -17 -5z"/>
<path d="M4518 1573 c12 -2 32 -2 45 0 12 2 2 4 -23 4 -25 0 -35 -2 -22 -4z"/>
</g>
</svg>
